<svg width="50" height="7" viewBox="0 0 50 7" fill="none" xmlns="http://www.w3.org/2000/svg">
<path fill-rule="evenodd" clip-rule="evenodd" d="M4.31099 5.63328L4.23999 5.43186C4.19265 5.29758 4.13832 5.1429 4.077 4.9678C4.01567 4.7927 3.96134 4.63801 3.91401 4.50374L3.843 4.30232H1.99041L1.52242 5.63328H0.912415L2.62945 0.982983H3.20395L4.92099 5.63328H4.31099ZM2.89088 1.73386L2.81665 1.94333C2.76716 2.08298 2.70638 2.25593 2.6343 2.46218L2.41805 3.08093C2.34597 3.28718 2.28519 3.46013 2.2357 3.59978L2.16146 3.80925H3.67194L2.94252 1.73386H2.89088ZM5.75958 5.63328V2.15925H6.28889V2.7071H6.34053C6.42875 2.51589 6.55839 2.36658 6.72945 2.25916C6.90051 2.15173 7.11944 2.09802 7.38625 2.09802C7.77786 2.09802 8.07855 2.2092 8.28834 2.43157C8.49813 2.65393 8.60302 2.97136 8.60302 3.38386V5.63328H8.04789V3.51921C8.04789 3.20554 7.98065 2.97351 7.84617 2.82312C7.71169 2.67273 7.50567 2.59753 7.2281 2.59753C6.95053 2.59753 6.72891 2.68455 6.56323 2.85857C6.39755 3.03259 6.31471 3.27214 6.31471 3.57722V5.63328H5.75958ZM10.9973 5.69451C10.5519 5.69451 10.1969 5.53123 9.93219 5.20466C9.66754 4.8781 9.53521 4.44197 9.53521 3.89626C9.53521 3.35056 9.66861 2.91443 9.93542 2.58787C10.2022 2.2613 10.5562 2.09802 10.9973 2.09802C11.2404 2.09802 11.4583 2.15173 11.6508 2.25916C11.8434 2.36658 11.9892 2.51589 12.0882 2.7071H12.1366V0.779956H12.6917V5.63328H12.1624V5.07898H12.1108C12.001 5.27234 11.8483 5.42327 11.6525 5.53176C11.4567 5.64026 11.2383 5.69451 10.9973 5.69451ZM11.1264 2.59753C10.8101 2.59753 10.5616 2.71301 10.3808 2.94397C10.2001 3.17493 10.1097 3.49236 10.1097 3.89626C10.1097 4.30232 10.1995 4.62029 10.3792 4.85017C10.5589 5.08005 10.8079 5.19499 11.1264 5.19499C11.4427 5.19499 11.6923 5.07898 11.8752 4.84695C12.0581 4.61492 12.1495 4.29802 12.1495 3.89626C12.1495 3.4988 12.0575 3.18298 11.8735 2.9488C11.6896 2.71462 11.4405 2.59753 11.1264 2.59753ZM13.8627 5.63328V2.15925H14.3921V2.67488H14.4437C14.4953 2.50515 14.6115 2.36658 14.7923 2.25916C14.973 2.15173 15.1785 2.09802 15.4087 2.09802C15.4539 2.09802 15.5029 2.09963 15.5556 2.10286C15.6083 2.10608 15.6519 2.10984 15.6863 2.11414V2.66843C15.6648 2.66199 15.6142 2.655 15.5346 2.64749C15.455 2.63997 15.3872 2.63621 15.3313 2.63621C15.0666 2.63621 14.8482 2.7157 14.6761 2.87468C14.5039 3.03367 14.4179 3.23562 14.4179 3.48054V5.63328H13.8627ZM17.8062 5.69451C17.3113 5.69451 16.9202 5.53391 16.633 5.21272C16.3457 4.89153 16.2021 4.45271 16.2021 3.89626C16.2021 3.33767 16.3457 2.89832 16.633 2.5782C16.9202 2.25808 17.3113 2.09802 17.8062 2.09802C18.3011 2.09802 18.6922 2.25808 18.9794 2.5782C19.2667 2.89832 19.4103 3.33767 19.4103 3.89626C19.4103 4.45271 19.2667 4.89153 18.9794 5.21272C18.6922 5.53391 18.3011 5.69451 17.8062 5.69451ZM17.8062 5.19499C18.1354 5.19499 18.3893 5.08113 18.5679 4.85339C18.7465 4.62566 18.8358 4.30662 18.8358 3.89626C18.8358 3.48376 18.7465 3.16419 18.5679 2.93752C18.3893 2.71086 18.1354 2.59753 17.8062 2.59753C17.477 2.59753 17.2231 2.71086 17.0445 2.93752C16.8659 3.16419 16.7766 3.48376 16.7766 3.89626C16.7766 4.30662 16.8659 4.62566 17.0445 4.85339C17.2231 5.08113 17.477 5.19499 17.8062 5.19499ZM20.3876 5.63328V2.15925H20.9428V5.63328H20.3876ZM20.6652 1.45349C20.5598 1.45349 20.4689 1.41536 20.3925 1.33909C20.3161 1.26282 20.2779 1.17205 20.2779 1.06677C20.2779 0.95935 20.3161 0.868042 20.3925 0.792847C20.4689 0.717651 20.5598 0.680054 20.6652 0.680054C20.7728 0.680054 20.8642 0.717651 20.9396 0.792847C21.0149 0.868042 21.0525 0.95935 21.0525 1.06677C21.0525 1.17205 21.0149 1.26282 20.9396 1.33909C20.8642 1.41536 20.7728 1.45349 20.6652 1.45349ZM23.3822 5.69451C22.9368 5.69451 22.5818 5.53123 22.3171 5.20466C22.0525 4.8781 21.9202 4.44197 21.9202 3.89626C21.9202 3.35056 22.0536 2.91443 22.3204 2.58787C22.5872 2.2613 22.9411 2.09802 23.3822 2.09802C23.6254 2.09802 23.8432 2.15173 24.0358 2.25916C24.2284 2.36658 24.3741 2.51589 24.4731 2.7071H24.5215V0.779956H25.0767V5.63328H24.5474V5.07898H24.4957C24.386 5.27234 24.2332 5.42327 24.0374 5.53176C23.8416 5.64026 23.6232 5.69451 23.3822 5.69451ZM23.5113 2.59753C23.195 2.59753 22.9465 2.71301 22.7658 2.94397C22.585 3.17493 22.4947 3.49236 22.4947 3.89626C22.4947 4.30232 22.5845 4.62029 22.7641 4.85017C22.9438 5.08005 23.1929 5.19499 23.5113 5.19499C23.8276 5.19499 24.0772 5.07898 24.2601 4.84695C24.443 4.61492 24.5344 4.29802 24.5344 3.89626C24.5344 3.4988 24.4425 3.18298 24.2585 2.9488C24.0745 2.71462 23.8255 2.59753 23.5113 2.59753ZM31.3046 5.63328L31.2336 5.43186C31.1863 5.29758 31.132 5.1429 31.0706 4.9678C31.0093 4.7927 30.955 4.63801 30.9077 4.50374L30.8367 4.30232H28.9841L28.5161 5.63328H27.9061L29.6231 0.982983H30.1976L31.9146 5.63328H31.3046ZM29.8845 1.73386L29.8103 1.94333C29.7608 2.08298 29.7 2.25593 29.6279 2.46218L29.4117 3.08093C29.3396 3.28718 29.2788 3.46013 29.2293 3.59978L29.1551 3.80925H30.6656L29.9362 1.73386H29.8845ZM34.4477 2.09802C34.8909 2.09802 35.2454 2.2613 35.5111 2.58787C35.7769 2.91443 35.9097 3.35056 35.9097 3.89626C35.9097 4.43982 35.7769 4.87541 35.5111 5.20305C35.2454 5.53069 34.8909 5.69451 34.4477 5.69451C34.2002 5.69451 33.9808 5.64294 33.7893 5.53982C33.5978 5.43669 33.4547 5.29382 33.36 5.11121H33.3084V6.79343H32.7532V2.15925H33.2825V2.73933H33.3342C33.4461 2.53953 33.6005 2.38269 33.7973 2.26882C33.9942 2.15496 34.211 2.09802 34.4477 2.09802ZM34.3153 5.19499C34.636 5.19499 34.8861 5.08005 35.0657 4.85017C35.2454 4.62029 35.3352 4.30232 35.3352 3.89626C35.3352 3.49021 35.2454 3.17224 35.0657 2.94236C34.8861 2.71247 34.637 2.59753 34.3186 2.59753C34.0044 2.59753 33.7548 2.71409 33.5698 2.94719C33.3847 3.1803 33.2922 3.49665 33.2922 3.89626C33.2922 4.29373 33.3847 4.60954 33.5698 4.84373C33.7548 5.07791 34.0034 5.19499 34.3153 5.19499ZM38.5686 2.09802C39.0119 2.09802 39.3664 2.2613 39.6321 2.58787C39.8979 2.91443 40.0307 3.35056 40.0307 3.89626C40.0307 4.43982 39.8979 4.87541 39.6321 5.20305C39.3664 5.53069 39.0119 5.69451 38.5686 5.69451C38.3212 5.69451 38.1017 5.64294 37.9102 5.53982C37.7187 5.43669 37.5756 5.29382 37.481 5.11121H37.4293V6.79343H36.8742V2.15925H37.4035V2.73933H37.4552C37.567 2.53953 37.7214 2.38269 37.9183 2.26882C38.1152 2.15496 38.332 2.09802 38.5686 2.09802ZM38.4363 5.19499C38.7569 5.19499 39.0071 5.08005 39.1867 4.85017C39.3664 4.62029 39.4562 4.30232 39.4562 3.89626C39.4562 3.49021 39.3664 3.17224 39.1867 2.94236C39.0071 2.71247 38.758 2.59753 38.4396 2.59753C38.1254 2.59753 37.8758 2.71409 37.6908 2.94719C37.5057 3.1803 37.4132 3.49665 37.4132 3.89626C37.4132 4.29373 37.5057 4.60954 37.6908 4.84373C37.8758 5.07791 38.1243 5.19499 38.4363 5.19499ZM44.3835 5.69451C43.8886 5.69451 43.4976 5.53391 43.2103 5.21272C42.923 4.89153 42.7794 4.45271 42.7794 3.89626C42.7794 3.33767 42.923 2.89832 43.2103 2.5782C43.4976 2.25808 43.8886 2.09802 44.3835 2.09802C44.8784 2.09802 45.2695 2.25808 45.5567 2.5782C45.844 2.89832 45.9876 3.33767 45.9876 3.89626C45.9876 4.45271 45.844 4.89153 45.5567 5.21272C45.2695 5.53391 44.8784 5.69451 44.3835 5.69451ZM44.3835 5.19499C44.7127 5.19499 44.9666 5.08113 45.1452 4.85339C45.3238 4.62566 45.4131 4.30662 45.4131 3.89626C45.4131 3.48376 45.3238 3.16419 45.1452 2.93752C44.9666 2.71086 44.7127 2.59753 44.3835 2.59753C44.0543 2.59753 43.8004 2.71086 43.6218 2.93752C43.4432 3.16419 43.3539 3.48376 43.3539 3.89626C43.3539 4.30662 43.4432 4.62566 43.6218 4.85339C43.8004 5.08113 44.0543 5.19499 44.3835 5.19499ZM46.952 5.63328C46.952 5.63328 46.952 5.51619 46.952 5.28201C46.952 5.04783 46.952 4.75833 46.952 4.4135C46.952 4.06868 46.952 3.72385 46.952 3.37903C46.952 3.0342 46.952 2.7447 46.952 2.51052C46.952 2.27634 46.952 2.15925 46.952 2.15925H47.4814V2.7071H47.533C47.6212 2.51589 47.7509 2.36658 47.9219 2.25916C48.093 2.15173 48.3119 2.09802 48.5787 2.09802C48.9703 2.09802 49.271 2.2092 49.4808 2.43157C49.6906 2.65393 49.7955 2.97136 49.7955 3.38386V5.63328H49.2404V3.51921C49.2404 3.20554 49.1731 2.97351 49.0386 2.82312C48.9042 2.67273 48.6981 2.59753 48.4206 2.59753C48.143 2.59753 47.9214 2.68455 47.7557 2.85857C47.59 3.03259 47.5072 3.27214 47.5072 3.57722V5.63328H46.952Z" fill="white"/>
</svg>
