<svg width="78" height="13" viewBox="0 0 78 13" fill="none" xmlns="http://www.w3.org/2000/svg">
<path fill-rule="evenodd" clip-rule="evenodd" d="M8.31581 10.4L8.1601 9.95827C8.05629 9.6638 7.93715 9.32458 7.80267 8.94059C7.66819 8.5566 7.54904 8.21738 7.44523 7.92291L7.28952 7.48121H3.22681L2.20051 10.4H0.862793L4.62823 0.201962H5.8881L9.65353 10.4H8.31581ZM5.23693 1.74969L5.0706 2.21966C4.95971 2.53297 4.82405 2.92049 4.66362 3.38222C4.50319 3.84394 4.34158 4.30566 4.17879 4.76739C4.01599 5.22912 3.87916 5.61664 3.76827 5.92995L3.60194 6.39992H6.91439L5.2794 1.74969H5.23693ZM14.897 2.92285C15.836 2.92285 16.5957 3.26796 17.1761 3.95819C17.7565 4.64843 18.0467 5.57069 18.0467 6.72501C18.0467 7.87462 17.7588 8.79571 17.1832 9.4883C16.6075 10.1809 15.8549 10.5272 14.9253 10.5272C14.3968 10.5272 13.9297 10.407 13.5239 10.1668C13.1181 9.92647 12.8043 9.60609 12.5825 9.20561H12.5542V12.8523H11.3227V3.05006H12.4905V4.29389H12.5188C12.7453 3.87927 13.065 3.54712 13.4779 3.29741C13.8908 3.0477 14.3638 2.92285 14.897 2.92285ZM14.6564 9.4459C15.3122 9.4459 15.8313 9.2009 16.2135 8.71091C16.5957 8.22091 16.7868 7.55895 16.7868 6.72501C16.7868 5.89579 16.5957 5.23501 16.2135 4.74266C15.8313 4.2503 15.3122 4.00413 14.6564 4.00413C14.0288 4.00413 13.5204 4.25384 13.1311 4.75326C12.7418 5.25268 12.5471 5.90992 12.5471 6.72501C12.5471 7.54482 12.7418 8.20324 13.1311 8.7003C13.5204 9.19737 14.0288 9.4459 14.6564 9.4459ZM23.552 2.92285C24.491 2.92285 25.2507 3.26796 25.8311 3.95819C26.4115 4.64843 26.7017 5.57069 26.7017 6.72501C26.7017 7.87462 26.4139 8.79571 25.8382 9.4883C25.2625 10.1809 24.5099 10.5272 23.5803 10.5272C23.0518 10.5272 22.5847 10.407 22.1789 10.1668C21.7731 9.92647 21.4593 9.60609 21.2376 9.20561H21.2092V12.8523H19.9777V3.05006H21.1455V4.29389H21.1739C21.4003 3.87927 21.72 3.54712 22.1329 3.29741C22.5458 3.0477 23.0188 2.92285 23.552 2.92285ZM23.3114 9.4459C23.9673 9.4459 24.4863 9.2009 24.8685 8.71091C25.2507 8.22091 25.4418 7.55895 25.4418 6.72501C25.4418 5.89579 25.2507 5.23501 24.8685 4.74266C24.4863 4.2503 23.9673 4.00413 23.3114 4.00413C22.6838 4.00413 22.1754 4.25384 21.7861 4.75326C21.3968 5.25268 21.2022 5.90992 21.2022 6.72501C21.2022 7.54482 21.3968 8.20324 21.7861 8.7003C22.1754 9.19737 22.6838 9.4459 23.3114 9.4459ZM28.6964 10.4V0.201962H29.928V10.4H28.6964ZM35.2351 3.99C34.6595 3.99 34.1852 4.18788 33.8125 4.58364C33.4397 4.97941 33.2345 5.48353 33.1967 6.09603H37.1957C37.1816 5.47882 36.9963 4.97352 36.6401 4.58011C36.2838 4.1867 35.8155 3.99 35.2351 3.99ZM37.1674 8.29394H38.3777C38.2739 8.9347 37.9377 9.4671 37.3691 9.89113C36.8005 10.3152 36.1152 10.5272 35.313 10.5272C34.2607 10.5272 33.4326 10.1868 32.8286 9.50597C32.2247 8.82516 31.9227 7.9076 31.9227 6.75328C31.9227 5.6131 32.2247 4.68966 32.8286 3.98293C33.4326 3.2762 34.2419 2.92285 35.2564 2.92285C36.252 2.92285 37.0365 3.25618 37.6098 3.92286C38.1831 4.58954 38.4697 5.47882 38.4697 6.59074V7.05717H33.1896V7.12785C33.1896 7.82986 33.3831 8.39406 33.77 8.82045C34.1569 9.24684 34.6807 9.46003 35.3413 9.46003C35.8084 9.46003 36.2036 9.35167 36.5268 9.13494C36.8501 8.91821 37.0636 8.63788 37.1674 8.29394ZM43.7686 7.59428H45.0497C45.111 8.14553 45.3823 8.5884 45.8636 8.92292C46.3449 9.25744 46.9489 9.4247 47.6756 9.4247C48.3645 9.4247 48.9343 9.26097 49.3849 8.93352C49.8355 8.60607 50.0608 8.19264 50.0608 7.69322C50.0608 7.25977 49.9039 6.90405 49.5901 6.62607C49.2764 6.34809 48.775 6.12194 48.0861 5.94762L46.7767 5.60839C44.9647 5.14666 44.0588 4.24914 44.0588 2.91578C44.0588 2.06771 44.395 1.37512 45.0674 0.838013C45.7398 0.300901 46.6068 0.0323486 47.6685 0.0323486C48.683 0.0323486 49.5229 0.303256 50.1882 0.84508C50.8535 1.3869 51.2004 2.08655 51.2287 2.94405H49.9547C49.898 2.39751 49.6621 1.96642 49.2469 1.65074C48.8316 1.33507 48.2914 1.17724 47.626 1.17724C46.9654 1.17724 46.4263 1.33272 46.0087 1.64368C45.5911 1.95464 45.3823 2.35982 45.3823 2.85924C45.3823 3.24558 45.5345 3.56243 45.8389 3.80978C46.1432 4.05714 46.6422 4.27033 47.3358 4.44937L48.4046 4.73206C49.4616 4.9959 50.2213 5.3469 50.6837 5.78507C51.1461 6.22324 51.3773 6.80746 51.3773 7.53775C51.3773 8.47062 51.034 9.20914 50.3475 9.75332C49.6609 10.2975 48.7302 10.5696 47.5552 10.5696C46.4747 10.5696 45.5888 10.2987 44.8975 9.75686C44.2062 9.21503 43.8299 8.49418 43.7686 7.59428ZM53.7684 1.27618H54.9999V3.05006H56.4297V4.06067H54.9999V8.42822C54.9999 8.76273 55.0731 9.00891 55.2194 9.16674C55.3656 9.32458 55.5968 9.40349 55.913 9.40349C55.9838 9.40349 56.0758 9.39878 56.189 9.38936C56.3023 9.37994 56.3801 9.37287 56.4226 9.36816V10.4C56.3471 10.4188 56.235 10.433 56.0864 10.4424C55.9378 10.4518 55.7903 10.4565 55.644 10.4565C54.9693 10.4565 54.488 10.3057 54.2001 10.0042C53.9123 9.70267 53.7684 9.19855 53.7684 8.49182V4.06067H52.6713V3.05006H53.7684V1.27618ZM61.2626 10.5272C60.2434 10.5272 59.42 10.1856 58.7925 9.50243C58.1649 8.81927 57.8511 7.89347 57.8511 6.72501C57.8511 5.55185 58.1649 4.62487 58.7925 3.94406C59.42 3.26325 60.2434 2.92285 61.2626 2.92285C62.2771 2.92285 63.0982 3.26325 63.7257 3.94406C64.3533 4.62487 64.6671 5.55185 64.6671 6.72501C64.6671 7.89347 64.3533 8.81927 63.7257 9.50243C63.0982 10.1856 62.2771 10.5272 61.2626 10.5272ZM61.2626 9.4459C61.9138 9.4459 62.4352 9.20915 62.8269 8.73564C63.2185 8.26213 63.4143 7.59193 63.4143 6.72501C63.4143 5.8581 63.2185 5.18789 62.8269 4.71439C62.4352 4.24088 61.9138 4.00413 61.2626 4.00413C60.6115 4.00413 60.0889 4.24088 59.6949 4.71439C59.3009 5.18789 59.1039 5.8581 59.1039 6.72501C59.1039 7.59193 59.3009 8.26213 59.6949 8.73564C60.0889 9.20915 60.6115 9.4459 61.2626 9.4459ZM66.5981 10.4V3.05006H67.7589V4.25148H67.7872C68.0515 3.36572 68.646 2.92285 69.5708 2.92285C69.6794 2.92285 69.7773 2.92873 69.8646 2.94051C69.9519 2.95229 70.0191 2.96289 70.0663 2.97232V4.16668C70.0191 4.14783 69.9353 4.13134 69.815 4.11721C69.6947 4.10307 69.559 4.096 69.408 4.096C68.9315 4.096 68.5493 4.25384 68.2614 4.56951C67.9736 4.88518 67.8297 5.30214 67.8297 5.82041V10.4H66.5981ZM74.3542 3.99C73.7786 3.99 73.3044 4.18788 72.9316 4.58364C72.5588 4.97941 72.3536 5.48353 72.3158 6.09603H76.3148C76.3007 5.47882 76.1155 4.97352 75.7592 4.58011C75.4029 4.1867 74.9346 3.99 74.3542 3.99ZM76.2865 8.29394C76.2865 8.29394 76.3479 8.29394 76.4705 8.29394C76.5932 8.29394 76.7336 8.29394 76.8917 8.29394C77.0497 8.29394 77.1901 8.29394 77.3128 8.29394C77.4355 8.29394 77.4968 8.29394 77.4968 8.29394C77.393 8.9347 77.0568 9.4671 76.4882 9.89113C75.9196 10.3152 75.2343 10.5272 74.4321 10.5272C73.3799 10.5272 72.5518 10.1868 71.9478 9.50597C71.3438 8.82516 71.0418 7.9076 71.0418 6.75328C71.0418 5.6131 71.3438 4.68966 71.9478 3.98293C72.5518 3.2762 73.361 2.92285 74.3755 2.92285C75.3711 2.92285 76.1556 3.25618 76.7289 3.92286C77.3022 4.58954 77.5888 5.47882 77.5888 6.59074V7.05717H72.3087V7.12785C72.3087 7.82986 72.5022 8.39406 72.8891 8.82045C73.276 9.24684 73.7998 9.46003 74.4604 9.46003C74.9276 9.46003 75.3227 9.35167 75.646 9.13494C75.9692 8.91821 76.1827 8.63788 76.2865 8.29394Z" fill="white"/>
</svg>
