<svg width="51" height="6" viewBox="0 0 51 6" fill="none" xmlns="http://www.w3.org/2000/svg">
<path fill-rule="evenodd" clip-rule="evenodd" d="M4.31099 5.2667L4.23999 5.06528C4.19265 4.93101 4.13832 4.77632 4.077 4.60122C4.01567 4.42612 3.96134 4.27144 3.91401 4.13716L3.843 3.93574H1.99041L1.52242 5.2667H0.912415L2.62945 0.616406H3.20395L4.92099 5.2667H4.31099ZM2.89088 1.36729L2.81665 1.57676C2.76716 1.71641 2.70638 1.88935 2.6343 2.09561L2.41805 2.71436C2.34597 2.92061 2.28519 3.09355 2.2357 3.2332L2.16146 3.44268H3.67194L2.94252 1.36729H2.89088ZM8.14794 1.79268L8.01723 2.14395C7.93009 2.37813 7.82304 2.66763 7.69609 3.01245C7.56914 3.35728 7.44166 3.7021 7.31363 4.04692C7.1856 4.39175 7.07802 4.68125 6.99088 4.91543L6.86016 5.2667H6.29212L5.00434 1.79268H5.5982L6.55032 4.65439H6.60196L7.55408 1.79268H8.14794ZM9.92574 4.84131C10.2119 4.84131 10.4491 4.75806 10.6374 4.59155C10.8257 4.42505 10.9198 4.21826 10.9198 3.97119V3.65215L9.98383 3.71338C9.47604 3.74775 9.22214 3.93681 9.22214 4.28057C9.22214 4.45674 9.28884 4.59424 9.42225 4.69307C9.55565 4.79189 9.72348 4.84131 9.92574 4.84131ZM9.82246 5.32793C9.48464 5.32793 9.20439 5.23501 8.98169 5.04917C8.75899 4.86333 8.64764 4.61143 8.64764 4.29346C8.64764 3.65752 9.07044 3.31484 9.91606 3.26543L10.9198 3.2042V2.88838C10.9198 2.4458 10.6573 2.22451 10.1323 2.22451C9.92359 2.22451 9.75038 2.26211 9.61267 2.3373C9.47496 2.4125 9.38674 2.51885 9.34801 2.65635H8.78642C8.823 2.37705 8.96716 2.15308 9.21891 1.98442C9.47066 1.81577 9.78157 1.73145 10.1517 1.73145C10.5755 1.73145 10.9021 1.83403 11.1312 2.03921C11.3604 2.24439 11.4749 2.52744 11.4749 2.88838V5.2667H10.9456V4.7543H10.894C10.7821 4.93906 10.6336 5.08086 10.4486 5.17969C10.2636 5.27852 10.0548 5.32793 9.82246 5.32793ZM12.6072 5.2667V1.79268H13.1624V5.2667H12.6072ZM12.8848 1.08691C12.7794 1.08691 12.6885 1.04878 12.6121 0.97251C12.5357 0.89624 12.4975 0.805469 12.4975 0.700195C12.4975 0.592773 12.5357 0.501465 12.6121 0.42627C12.6885 0.351074 12.7794 0.313477 12.8848 0.313477C12.9924 0.313477 13.0838 0.351074 13.1591 0.42627C13.2345 0.501465 13.2721 0.592773 13.2721 0.700195C13.2721 0.805469 13.2345 0.89624 13.1591 0.97251C13.0838 1.04878 12.9924 1.08691 12.8848 1.08691ZM14.3463 5.2667V0.413379H14.9014V5.2667H14.3463ZM17.144 4.84131C17.4302 4.84131 17.6674 4.75806 17.8557 4.59155C18.0439 4.42505 18.1381 4.21826 18.1381 3.97119V3.65215L17.2021 3.71338C16.6943 3.74775 16.4404 3.93681 16.4404 4.28057C16.4404 4.45674 16.5071 4.59424 16.6405 4.69307C16.7739 4.79189 16.9417 4.84131 17.144 4.84131ZM17.0407 5.32793C16.7029 5.32793 16.4226 5.23501 16.1999 5.04917C15.9772 4.86333 15.8659 4.61143 15.8659 4.29346C15.8659 3.65752 16.2887 3.31484 17.1343 3.26543L18.1381 3.2042V2.88838C18.1381 2.4458 17.8756 2.22451 17.3506 2.22451C17.1418 2.22451 16.9686 2.26211 16.8309 2.3373C16.6932 2.4125 16.605 2.51885 16.5663 2.65635H16.0047C16.0413 2.37705 16.1854 2.15308 16.4372 1.98442C16.6889 1.81577 16.9998 1.73145 17.3699 1.73145C17.7938 1.73145 18.1203 1.83403 18.3495 2.03921C18.5786 2.24439 18.6932 2.52744 18.6932 2.88838V5.2667H18.1639V4.7543H18.1122C18.0004 4.93906 17.8519 5.08086 17.6669 5.17969C17.4818 5.27852 17.2731 5.32793 17.0407 5.32793ZM21.5425 5.32793C21.3015 5.32793 21.0826 5.27368 20.8857 5.16519C20.6889 5.05669 20.5355 4.90576 20.4258 4.7124H20.3742V5.2667H19.8449V0.413379H20.4V2.34053H20.4516C20.5463 2.15361 20.6921 2.00537 20.889 1.8958C21.0858 1.78623 21.3037 1.73145 21.5425 1.73145C21.9858 1.73145 22.3397 1.89472 22.6044 2.22129C22.869 2.54785 23.0014 2.98398 23.0014 3.52969C23.0014 4.07325 22.8685 4.50884 22.6028 4.83647C22.337 5.16411 21.9836 5.32793 21.5425 5.32793ZM21.4134 2.23096C21.0971 2.23096 20.847 2.34697 20.663 2.579C20.4791 2.81104 20.3871 3.12793 20.3871 3.52969C20.3871 3.93145 20.4791 4.24834 20.663 4.48037C20.847 4.7124 21.0971 4.82842 21.4134 4.82842C21.7319 4.82842 21.9804 4.71348 22.159 4.48359C22.3376 4.25371 22.4269 3.93574 22.4269 3.52969C22.4269 3.12363 22.3376 2.80567 22.159 2.57578C21.9804 2.3459 21.7319 2.23096 21.4134 2.23096ZM23.9981 5.2667V0.413379H24.5532V5.2667H23.9981ZM27.1121 2.22129C26.8345 2.22129 26.6065 2.31475 26.4279 2.50166C26.2493 2.68858 26.1492 2.93564 26.1277 3.24287H28.0448C28.0384 2.93564 27.9502 2.68858 27.7802 2.50166C27.6102 2.31475 27.3875 2.22129 27.1121 2.22129ZM28.0287 4.36758H28.5838C28.4999 4.66621 28.3299 4.90093 28.0739 5.07173C27.8178 5.24253 27.4994 5.32793 27.1186 5.32793C26.6366 5.32793 26.2547 5.16626 25.9728 4.84292C25.6909 4.51958 25.55 4.08291 25.55 3.53291C25.55 2.9872 25.692 2.55054 25.976 2.2229C26.26 1.89526 26.6409 1.73145 27.1186 1.73145C27.5876 1.73145 27.9566 1.88774 28.2256 2.20034C28.4946 2.51294 28.629 2.93886 28.629 3.47813V3.69082H26.1277V3.7166C26.1428 4.06035 26.2401 4.3332 26.4198 4.53516C26.5995 4.73711 26.8367 4.83809 27.1315 4.83809C27.3552 4.83809 27.5424 4.7978 27.693 4.71724C27.8437 4.63667 27.9556 4.52012 28.0287 4.36758ZM32.9818 5.32793C32.4869 5.32793 32.0959 5.16734 31.8086 4.84614C31.5214 4.52495 31.3777 4.08614 31.3777 3.52969C31.3777 2.97109 31.5214 2.53174 31.8086 2.21162C32.0959 1.8915 32.4869 1.73145 32.9818 1.73145C33.4767 1.73145 33.8678 1.8915 34.155 2.21162C34.4423 2.53174 34.5859 2.97109 34.5859 3.52969C34.5859 4.08614 34.4423 4.52495 34.155 4.84614C33.8678 5.16734 33.4767 5.32793 32.9818 5.32793ZM32.9818 4.82842C33.311 4.82842 33.5649 4.71455 33.7435 4.48682C33.9221 4.25908 34.0114 3.94004 34.0114 3.52969C34.0114 3.11719 33.9221 2.79761 33.7435 2.57095C33.5649 2.34429 33.311 2.23096 32.9818 2.23096C32.6526 2.23096 32.3987 2.34429 32.2201 2.57095C32.0415 2.79761 31.9522 3.11719 31.9522 3.52969C31.9522 3.94004 32.0415 4.25908 32.2201 4.48682C32.3987 4.71455 32.6526 4.82842 32.9818 4.82842ZM35.5504 5.2667V1.79268H36.0797V2.34053H36.1313C36.2195 2.14932 36.3492 2 36.5202 1.89258C36.6913 1.78516 36.9102 1.73145 37.177 1.73145C37.5686 1.73145 37.8693 1.84263 38.0791 2.06499C38.2889 2.28735 38.3938 2.60478 38.3938 3.01729V5.2667H37.8387V3.15264C37.8387 2.83896 37.7714 2.60693 37.6369 2.45654C37.5025 2.30615 37.2964 2.23096 37.0189 2.23096C36.7413 2.23096 36.5197 2.31797 36.354 2.49199C36.1883 2.66602 36.1055 2.90556 36.1055 3.21064V5.2667H35.5504ZM41.6912 0.893555H42.2463V1.79268H43.0209V2.25674H42.2463V4.22256C42.2463 4.42666 42.2872 4.5749 42.369 4.66728C42.4507 4.75967 42.582 4.80586 42.7627 4.80586C42.8122 4.80586 42.8547 4.80479 42.8902 4.80264C42.9257 4.80049 42.9693 4.79727 43.0209 4.79297V5.26025C42.9671 5.271 42.9133 5.27905 42.8595 5.28442C42.8058 5.28979 42.7509 5.29248 42.6949 5.29248C42.3378 5.29248 42.0812 5.22051 41.9252 5.07656C41.7692 4.93262 41.6912 4.69522 41.6912 4.36436V2.25674H41.1296V1.79268H41.6912V0.893555ZM43.9854 5.2667V0.413379H44.5405V2.34053H44.5922C44.6804 2.14932 44.8143 2 44.994 1.89258C45.1736 1.78516 45.3969 1.73145 45.6637 1.73145C46.0316 1.73145 46.3237 1.8437 46.54 2.06821C46.7562 2.29273 46.8643 2.60908 46.8643 3.01729V5.2667H46.3092V3.15264C46.3092 2.84541 46.2409 2.61499 46.1042 2.46138C45.9676 2.30776 45.7681 2.23096 45.5055 2.23096C45.1936 2.23096 44.9547 2.32065 44.789 2.50005C44.6234 2.67944 44.5405 2.91631 44.5405 3.21064V5.2667H43.9854ZM49.3586 2.22129C49.0811 2.22129 48.853 2.31475 48.6744 2.50166C48.4958 2.68858 48.3958 2.93564 48.3742 3.24287H50.2914C50.2849 2.93564 50.1967 2.68858 50.0267 2.50166C49.8567 2.31475 49.6341 2.22129 49.3586 2.22129ZM50.2752 4.36758C50.2752 4.36758 50.3032 4.36758 50.3592 4.36758C50.4151 4.36758 50.4797 4.36758 50.5528 4.36758C50.626 4.36758 50.6905 4.36758 50.7465 4.36758C50.8024 4.36758 50.8304 4.36758 50.8304 4.36758C50.7465 4.66621 50.5765 4.90093 50.3204 5.07173C50.0644 5.24253 49.7459 5.32793 49.3651 5.32793C48.8831 5.32793 48.5012 5.16626 48.2193 4.84292C47.9375 4.51958 47.7965 4.08291 47.7965 3.53291C47.7965 2.9872 47.9385 2.55054 48.2225 2.2229C48.5066 1.89526 48.8874 1.73145 49.3651 1.73145C49.8342 1.73145 50.2032 1.88774 50.4721 2.20034C50.7411 2.51294 50.8756 2.93886 50.8756 3.47813V3.69082H48.3742V3.7166C48.3893 4.06035 48.4867 4.3332 48.6663 4.53516C48.846 4.73711 49.0832 4.83809 49.378 4.83809C49.6018 4.83809 49.789 4.7978 49.9396 4.71724C50.0902 4.63667 50.2021 4.52012 50.2752 4.36758Z" fill="white"/>
</svg>
