<svg width="91" height="10" viewBox="0 0 91 10" fill="none" xmlns="http://www.w3.org/2000/svg">
<path fill-rule="evenodd" clip-rule="evenodd" d="M8.44596 5.91882C8.44596 7.17352 8.09847 8.15427 7.40347 8.86111C6.70848 9.56795 5.73916 9.92136 4.49548 9.92136C3.19586 9.92136 2.15983 9.48201 1.38738 8.6033C0.614921 7.72458 0.228699 6.54617 0.228699 5.06804C0.228699 3.61569 0.613846 2.45984 1.38415 1.60046C2.15446 0.741085 3.19155 0.311401 4.49548 0.311401C5.50247 0.311401 6.35991 0.587473 7.06781 1.13962C7.77572 1.69178 8.21573 2.42976 8.38787 3.35359H7.16786C6.97421 2.72624 6.64393 2.2407 6.17702 1.89695C5.7101 1.5532 5.14959 1.38132 4.49548 1.38132C3.53582 1.38132 2.78382 1.70681 2.23944 2.35779C1.69507 3.00877 1.42288 3.91003 1.42288 5.0616C1.42288 6.23035 1.69829 7.15417 2.24913 7.83308C2.79996 8.51199 3.54874 8.85144 4.49548 8.85144C5.32173 8.85144 5.99304 8.6076 6.50945 8.1199C7.02586 7.6322 7.28405 6.99949 7.28405 6.22175V6.05417H4.65685V5.03582H8.44596V5.91882ZM14.5061 0.311401C15.8272 0.311401 16.8729 0.743233 17.6433 1.60691C18.4136 2.47059 18.7987 3.64147 18.7987 5.1196C18.7987 6.59344 18.4136 7.76218 17.6433 8.62585C16.8729 9.48953 15.8272 9.92136 14.5061 9.92136C13.185 9.92136 12.1393 9.48953 11.369 8.62585C10.5987 7.76218 10.2135 6.59344 10.2135 5.1196C10.2135 3.64147 10.5987 2.47059 11.369 1.60691C12.1393 0.743233 13.185 0.311401 14.5061 0.311401ZM14.5061 1.38132C13.5551 1.38132 12.8009 1.71755 12.2436 2.39001C11.6863 3.06248 11.4077 3.97233 11.4077 5.1196C11.4077 6.26258 11.6863 7.17028 12.2436 7.84275C12.8009 8.51521 13.5551 8.85144 14.5061 8.85144C15.4572 8.85144 16.2113 8.51521 16.7686 7.84275C17.3259 7.17028 17.6045 6.26258 17.6045 5.1196C17.6045 3.97233 17.3259 3.06248 16.7686 2.39001C16.2113 1.71755 15.4572 1.38132 14.5061 1.38132ZM24.8201 0.311401C26.1413 0.311401 27.187 0.743233 27.9573 1.60691C28.7276 2.47059 29.1127 3.64147 29.1127 5.1196C29.1127 6.59344 28.7276 7.76218 27.9573 8.62585C27.187 9.48953 26.1413 9.92136 24.8201 9.92136C23.499 9.92136 22.4533 9.48953 21.683 8.62585C20.9127 7.76218 20.5275 6.59344 20.5275 5.1196C20.5275 3.64147 20.9127 2.47059 21.683 1.60691C22.4533 0.743233 23.499 0.311401 24.8201 0.311401ZM24.8201 1.38132C23.8691 1.38132 23.1149 1.71755 22.5576 2.39001C22.0003 3.06248 21.7217 3.97233 21.7217 5.1196C21.7217 6.26258 22.0003 7.17028 22.5576 7.84275C23.1149 8.51521 23.8691 8.85144 24.8201 8.85144C25.7712 8.85144 26.5253 8.51521 27.0826 7.84275C27.6399 7.17028 27.9185 6.26258 27.9185 5.1196C27.9185 3.97233 27.6399 3.06248 27.0826 2.39001C26.5253 1.71755 25.7712 1.38132 24.8201 1.38132ZM39.0588 5.91882C39.0588 7.17352 38.7113 8.15427 38.0163 8.86111C37.3213 9.56795 36.352 9.92136 35.1083 9.92136C33.8087 9.92136 32.7727 9.48201 32.0002 8.6033C31.2278 7.72458 30.8415 6.54617 30.8415 5.06804C30.8415 3.61569 31.2267 2.45984 31.997 1.60046C32.7673 0.741085 33.8044 0.311401 35.1083 0.311401C36.1153 0.311401 36.9727 0.587473 37.6806 1.13962C38.3886 1.69178 38.8286 2.42976 39.0007 3.35359H37.7807C37.587 2.72624 37.2568 2.2407 36.7899 1.89695C36.3229 1.5532 35.7624 1.38132 35.1083 1.38132C34.1487 1.38132 33.3967 1.70681 32.8523 2.35779C32.3079 3.00877 32.0357 3.91003 32.0357 5.0616C32.0357 6.23035 32.3111 7.15417 32.862 7.83308C33.4128 8.51199 34.1616 8.85144 35.1083 8.85144C35.9346 8.85144 36.6059 8.6076 37.1223 8.1199C37.6387 7.6322 37.8969 6.99949 37.8969 6.22175V6.05417H35.2697V5.03582H39.0588V5.91882ZM46.8424 8.72253V9.76667H41.1878V0.466089H42.3497V8.72253H46.8424ZM54.5357 8.72253V9.76667H48.7649V0.466089H54.5357V1.51023H49.9268V4.49441H54.2969V5.52566H49.9268V8.72253H54.5357ZM60.0654 0.466089H63.3897C64.2633 0.466089 64.9788 0.743235 65.536 1.29753C66.0933 1.85183 66.372 2.5694 66.372 3.45027C66.372 4.33113 66.0912 5.05085 65.5296 5.60945C64.968 6.16804 64.2504 6.44734 63.3768 6.44734H61.2273V9.76667H60.0654V0.466089ZM61.2273 1.49734V5.41609H63.0864C63.7534 5.41609 64.2687 5.24314 64.6323 4.89724C64.996 4.55134 65.1778 4.06902 65.1778 3.45027C65.1778 2.83581 64.996 2.35672 64.6323 2.01296C64.2687 1.66921 63.7534 1.49734 63.0864 1.49734H61.2273ZM74.0007 8.72253V9.76667H68.3461V0.466089H69.508V8.72253H74.0007ZM81.978 9.76667L81.836 9.36384C81.7413 9.09529 81.6326 8.78591 81.51 8.43572C81.3873 8.08552 81.2787 7.77615 81.184 7.50759L81.042 7.10476H77.3368L76.4008 9.76667H75.1808L78.6149 0.466089H79.7639L83.198 9.76667H81.978ZM79.17 1.87761L79.0183 2.30623C78.9172 2.59197 78.7935 2.94538 78.6472 3.36648C78.5009 3.78758 78.3535 4.20866 78.205 4.62976C78.0565 5.05086 77.9317 5.40427 77.8306 5.69001L77.6789 6.11863H80.6999L79.2088 1.87761H79.17ZM87.4701 9.76667C87.4701 9.76667 87.412 9.76667 87.2958 9.76667C87.1796 9.76667 87.0441 9.76667 86.8891 9.76667C86.7342 9.76667 86.5987 9.76667 86.4825 9.76667C86.3663 9.76667 86.3082 9.76667 86.3082 9.76667V5.76414L83.0032 0.466089H84.3265L86.8698 4.64265H86.9085L89.4518 0.466089H90.7751L87.4701 5.76414V9.76667Z" fill="white"/>
</svg>
