<svg width="19" height="23" viewBox="0 0 19 23" fill="none" xmlns="http://www.w3.org/2000/svg">
<path fill-rule="evenodd" clip-rule="evenodd" d="M18.3484 16.8544C18.0099 17.9779 17.4761 19.1014 16.7471 20.2249C15.6274 21.9866 14.5122 22.8674 13.4012 22.8674C12.9759 22.8674 12.3684 22.7236 11.5786 22.436C10.8322 22.1484 10.1769 22.0045 9.61274 22.0045C9.08331 22.0045 8.46708 22.1528 7.76406 22.4495C7.06105 22.755 6.48822 22.9078 6.04558 22.9078C4.72633 22.9078 3.42011 21.7439 2.1269 19.416C0.851058 17.0701 0.213135 14.8096 0.213135 12.6345C0.213135 10.5852 0.703511 8.90444 1.68426 7.59218C2.65634 6.2979 3.88879 5.65076 5.38161 5.65076C6.00652 5.65076 6.77463 5.78558 7.68595 6.05522C8.58859 6.32486 9.18746 6.45968 9.48255 6.45968C9.87311 6.45968 10.4937 6.30689 11.3442 6.00129C12.2295 5.6957 12.9803 5.5429 13.5965 5.5429C14.6293 5.5429 15.5537 5.83501 16.3695 6.41924C16.8208 6.74281 17.2722 7.19221 17.7235 7.76745C17.0378 8.36965 16.5431 8.89994 16.2393 9.35834C15.6752 10.2032 15.3931 11.1335 15.3931 12.1491C15.3931 13.2636 15.6925 14.2658 16.2914 15.1556C16.8903 16.0455 17.5759 16.6117 18.3484 16.8544ZM13.4533 1.03988C13.4533 1.58815 13.3274 2.19934 13.0758 2.87345C12.8154 3.54755 12.4118 4.16773 11.865 4.73398C11.3963 5.21933 10.9276 5.5429 10.459 5.70469C10.1378 5.80356 9.68651 5.87995 9.105 5.93388C9.13104 4.59466 9.46953 3.43969 10.1205 2.46898C10.7627 1.50726 11.8476 0.842143 13.3752 0.473633C13.3839 0.500597 13.3947 0.550031 13.4077 0.621936C13.4207 0.69384 13.4316 0.743275 13.4403 0.770239C13.4403 0.806191 13.4424 0.851132 13.4468 0.90506C13.4511 0.958988 13.4533 1.00393 13.4533 1.03988Z" fill="white"/>
</svg>
